<svg width="600" height="450" viewBox="0 0 500 450" xmlns="http://www.w3.org/2000/svg" font-family="sans-serif"><rect width="600" height="100%" fill="#f9f9f9"/><defs><rect x="-18" y="-18" width="36" height="36" rx="5" fill="#555" stroke="#222" stroke-width="2" id="d"/><rect x="-10" y="-5" width="20" height="10" rx="2" fill="#777" stroke="#222" stroke-width="1.5" id="b"/><circle r="4" fill="#ffc107" stroke="#e6a100" id="c"/><g id="a" stroke="#333"><circle r="20" fill="#e0e0e0" stroke-width="2"/><circle r="12" fill="#bbb"/><path stroke-width="3" stroke-linecap="round" d="M0-5v-13"/></g></defs><text x="250" y="30" font-size="20" text-anchor="middle" fill="#333"> UI-Extensionboard</text><use href="#a" x="385" y="80"/><text x="450" y="85" text-anchor="left" font-size="14">Encoder</text><use href="#a" x="85" y="160"/><text x="85" y="130" text-anchor="middle" font-size="14">3</text><use href="#a" x="185" y="160"/><text x="185" y="130" text-anchor="middle" font-size="14">2</text><use href="#a" x="285" y="160"/><text x="285" y="130" text-anchor="middle" font-size="14">1</text><use href="#a" x="385" y="160"/><text x="385" y="130" text-anchor="middle" font-size="14">0</text><text x="450" y="165" text-anchor="left" font-size="14">Potentiometers</text><use href="#b" x="85" y="230"/><text x="85" y="215" text-anchor="middle" font-size="14">0</text><use href="#b" x="185" y="230"/><text x="185" y="215" text-anchor="middle" font-size="14">1</text><use href="#b" x="285" y="230"/><text x="285" y="215" text-anchor="middle" font-size="14">2</text><use href="#b" x="385" y="230"/><text x="385" y="215" text-anchor="middle" font-size="14">3</text><text x="450" y="235" text-anchor="left" font-size="14">F-Buttons</text><use href="#c" x="60" y="270"/><use href="#c" x="110" y="270"/><use href="#c" x="160" y="270"/><use href="#c" x="210" y="270"/><use href="#c" x="260" y="270"/><use href="#c" x="310" y="270"/><use href="#c" x="360" y="270"/><use href="#c" x="410" y="270"/><use href="#c" x="60" y="330"/><use href="#c" x="110" y="330"/><use href="#c" x="160" y="330"/><use href="#c" x="210" y="330"/><use href="#c" x="260" y="330"/><use href="#c" x="310" y="330"/><use href="#c" x="360" y="330"/><use href="#c" x="410" y="330"/><use href="#d" x="60" y="300"/><text x="60" y="305" fill="#fff" text-anchor="middle" font-size="14">0</text><use href="#d" x="110" y="300"/><text x="110" y="305" fill="#fff" text-anchor="middle" font-size="14">1</text><use href="#d" x="160" y="300"/><text x="160" y="305" fill="#fff" text-anchor="middle" font-size="14">2</text><use href="#d" x="210" y="300"/><text x="210" y="305" fill="#fff" text-anchor="middle" font-size="14">3</text><use href="#d" x="260" y="300"/><text x="260" y="305" fill="#fff" text-anchor="middle" font-size="14">4</text><use href="#d" x="310" y="300"/><text x="310" y="305" fill="#fff" text-anchor="middle" font-size="14">5</text><use href="#d" x="360" y="300"/><text x="360" y="305" fill="#fff" text-anchor="middle" font-size="14">6</text><use href="#d" x="410" y="300"/><text x="410" y="305" fill="#fff" text-anchor="middle" font-size="14">7</text><use href="#d" x="60" y="360"/><text x="60" y="365" fill="#fff" text-anchor="middle" font-size="14">8</text><use href="#d" x="110" y="360"/><text x="110" y="365" fill="#fff" text-anchor="middle" font-size="14">9</text><use href="#d" x="160" y="360"/><text x="160" y="365" fill="#fff" text-anchor="middle" font-size="14">10</text><use href="#d" x="210" y="360"/><text x="210" y="365" fill="#fff" text-anchor="middle" font-size="14">11</text><use href="#d" x="260" y="360"/><text x="260" y="365" fill="#fff" text-anchor="middle" font-size="14">12</text><use href="#d" x="310" y="360"/><text x="310" y="365" fill="#fff" text-anchor="middle" font-size="14">13</text><use href="#d" x="360" y="360"/><text x="360" y="365" fill="#fff" text-anchor="middle" font-size="14">14</text><use href="#d" x="410" y="360"/><text x="410" y="365" fill="#fff" text-anchor="middle" font-size="14">15</text><text x="450" y="330" text-anchor="left" font-size="14">Buttons</text></svg>